{
 "accessors": [
  {
   "componentType": 5126,
   "type": "VEC3",
   "count": 148,
   "max": [
    0.5,
    0.5,
    0.5
   ],
   "min": [
    -0.5,
    -0.5,
    -0.5
   ],
   "bufferView": 1
  },
  {
   "componentType": 5126,
   "type": "VEC3",
   "count": 148,
   "bufferView": 2
  },
  {
   "componentType": 5126,
   "type": "VEC2",
   "count": 148,
   "bufferView": 3
  },
  {
   "componentType": 5121,
   "type": "SCALAR",
   "count": 288,
   "bufferView": 4
  },
  {
   "componentType": 5126,
   "type": "VEC3",
   "count": 420,
   "max": [
    1.6089999675750732,
    1.0130000114440918,
    0.10000000149011612
   ],
   "min": [
    0,
    0,
    0
   ],
   "bufferView": 5
  },
  {
   "componentType": 5126,
   "type": "VEC3",
   "count": 420,
   "bufferView": 6
  },
  {
   "componentType": 5126,
   "type": "VEC2",
   "count": 420,
   "bufferView": 7
  },
  {
   "componentType": 5123,
   "type": "SCALAR",
   "count": 420,
   "bufferView": 8
  },
  {
   "componentType": 5126,
   "type": "VEC3",
   "count": 18,
   "max": [
    0.26047223806381226,
    0.3023405373096466,
    0.5
   ],
   "min": [
    -0.6493657231330872,
    -0.6419939994812012,
    -0.504817008972168
   ],
   "bufferView": 9
  },
  {
   "componentType": 5126,
   "type": "VEC3",
   "count": 18,
   "bufferView": 10
  },
  {
   "componentType": 5121,
   "type": "SCALAR",
   "count": 18,
   "bufferView": 11
  }
 ],
 "asset": {
  "version": "2.0",
  "generator": "clara.io"
 },
 "bufferViews": [
  {
   "buffer": 0,
   "byteOffset": 0,
   "byteLength": 3360
  },
  {
   "buffer": 0,
   "byteOffset": 8192,
   "byteLength": 1776,
   "target": 34962,
   "byteStride": 12
  },
  {
   "buffer": 0,
   "byteOffset": 9968,
   "byteLength": 1776,
   "target": 34962,
   "byteStride": 12
  },
  {
   "buffer": 0,
   "byteOffset": 11744,
   "byteLength": 1184,
   "target": 34962,
   "byteStride": 8
  },
  {
   "buffer": 0,
   "byteOffset": 12928,
   "byteLength": 288,
   "target": 34963
  },
  {
   "buffer": 0,
   "byteOffset": 13216,
   "byteLength": 5040,
   "target": 34962,
   "byteStride": 12
  },
  {
   "buffer": 0,
   "byteOffset": 18256,
   "byteLength": 5040,
   "target": 34962,
   "byteStride": 12
  },
  {
   "buffer": 0,
   "byteOffset": 23296,
   "byteLength": 3360,
   "target": 34962,
   "byteStride": 8
  },
  {
   "buffer": 0,
   "byteOffset": 26656,
   "byteLength": 840,
   "target": 34963
  },
  {
   "buffer": 0,
   "byteOffset": 27496,
   "byteLength": 216,
   "target": 34962,
   "byteStride": 12
  },
  {
   "buffer": 0,
   "byteOffset": 27712,
   "byteLength": 216,
   "target": 34962,
   "byteStride": 12
  },
  {
   "buffer": 0,
   "byteOffset": 27928,
   "byteLength": 18,
   "target": 34963
  }
 ],
 "buffers": [
  {
   "byteLength": 27948,
   "uri": "data:application/octet-stream;base64,"
  }
 ],
 "images": [
  {
   "name": "008080.png",
   "bufferView": 0,
   "mimeType": "image/jpeg"
  }
 ],
 "materials": [
  {
   "name": "008080Material",
   "pbrMetallicRoughness": {
    "baseColorFactor": [
     0.6901960784313725,
     0.6901960784313725,
     0.6901960784313725,
     1
    ],
    "baseColorTexture": {
     "index": 0,
     "texCoord": 0
    },
    "roughnessFactor": 0.25,
    "metallicFactor": 0
   }
  },
  {
   "name": "Default-PH",
   "pbrMetallicRoughness": {
    "baseColorFactor": [
     0.6901960784313725,
     0.6901960784313725,
     0.6901960784313725,
     1
    ]
   }
  }
 ],
 "meshes": [
  {
   "primitives": [
    {
     "indices": 3,
     "material": 0,
     "mode": 4,
     "attributes": {
      "POSITION": 0,
      "NORMAL": 1,
      "TEXCOORD_0": 2
     }
    }
   ]
  },
  {
   "primitives": [
    {
     "indices": 7,
     "material": 1,
     "mode": 4,
     "attributes": {
      "POSITION": 4,
      "NORMAL": 5,
      "TEXCOORD_0": 6
     }
    }
   ]
  },
  {
   "primitives": [
    {
     "indices": 10,
     "material": 0,
     "mode": 4,
     "attributes": {
      "POSITION": 8,
      "NORMAL": 9
     }
    }
   ]
  }
 ],
 "nodes": [
  {
   "name": "Group",
   "translation": [
    -0.2244500070810318,
    0.8162000179290771,
    0.09955000132322311
   ],
   "children": [
    1,
    2
   ]
  },
  {
   "name": "Cylinder",
   "translation": [
    0.2244500070810318,
    0.1654999852180481,
    -0.09955000132322311
   ],
   "rotation": [
    0.5,
    0.5,
    0.5,
    0.5
   ],
   "scale": [
    1,
    0.18000000715255737,
    1
   ],
   "mesh": 0
  },
  {
   "name": "PH",
   "translation": [
    -0.039400000125169754,
    0.05790000036358833,
    0.01979999989271164
   ],
   "scale": [
    0.30000001192092896,
    0.30000001192092896,
    0.30000001192092896
   ],
   "mesh": 1
  },
  {
   "name": "Box",
   "translation": [
    0,
    0.555899977684021,
    0
   ],
   "rotation": [
    0,
    0,
    0.38669567411410727,
    0.922207384480057
   ],
   "scale": [
    0.6000000255671866,
    0.6000000255671866,
    0.18000000715255737
   ],
   "mesh": 2
  }
 ],
 "samplers": [
  {
   "magFilter": 9729,
   "minFilter": 9987,
   "wrapS": 10497,
   "wrapT": 10497
  }
 ],
 "scene": 0,
 "scenes": [
  {
   "nodes": [
    0,
    3
   ]
  }
 ],
 "textures": [
  {
   "sampler": 0,
   "source": 0
  }
 ]
}